<svg xmlns="http://www.w3.org/2000/svg" viewBox="0 0 1900 741" role="img" aria-labelledby="title desc">
  <title id="title">Compte RH M2L</title>
  <desc id="desc">Capture stylisee de la page Mon compte pour un utilisateur RH.</desc>
  <rect width="1900" height="741" fill="#dff4fb"/>
  <rect width="1900" height="198" fill="#5d4898"/>
  <text x="10" y="65" font-family="Segoe UI, Arial, sans-serif" font-size="62" fill="#fff">Maison des Ligues</text>
  <rect y="198" width="1900" height="53" fill="#82cee6"/>
  <rect x="1549" y="198" width="176" height="53" fill="#fffdee"/>
  <g font-family="Segoe UI, Arial, sans-serif" font-size="26" font-weight="700" fill="#fff">
    <text x="717" y="233">Accueil</text><text x="886" y="233">Services</text><text x="1067" y="233">Locaux</text><text x="1247" y="233">Ligues</text><text x="1388" y="233">Intervenants</text><text x="1563" y="233" fill="#000">Mon compte</text><text x="1738" y="233">Déconnexion</text>
  </g>
  <circle cx="452" cy="318" r="35" fill="#d4effb" stroke="#b4d9ea"/>
  <text x="435" y="327" font-family="Segoe UI, Arial, sans-serif" font-size="22" font-weight="700" fill="#073858">AD</text>
  <text x="505" y="320" font-family="Segoe UI, Arial, sans-serif" font-size="44" font-weight="800" fill="#073858">Mon compte</text>
  <text x="580" y="358" font-family="Segoe UI, Arial, sans-serif" font-size="20" fill="#315b78">Alice Durand</text>
  <g font-family="Segoe UI, Arial, sans-serif">
    <rect x="418" y="383" width="526" height="78" rx="10" fill="#fff" stroke="#d9e3eb"/><rect x="958" y="383" width="526" height="78" rx="10" fill="#fff" stroke="#d9e3eb"/>
    <rect x="418" y="476" width="526" height="78" rx="10" fill="#fff" stroke="#d9e3eb"/><rect x="958" y="476" width="526" height="78" rx="10" fill="#fff" stroke="#d9e3eb"/>
    <rect x="418" y="567" width="526" height="78" rx="10" fill="#fff" stroke="#d9e3eb"/><rect x="958" y="567" width="526" height="78" rx="10" fill="#fff" stroke="#d9e3eb"/>
    <text x="655" y="412" font-size="16" fill="#64748b">STATUT</text><text x="668" y="443" font-size="20" font-weight="700" fill="#073858">RH</text>
    <text x="1175" y="412" font-size="16" fill="#64748b">IDENTIFIANT</text><text x="1184" y="443" font-size="20" font-weight="700" fill="#073858">adurand</text>
    <text x="663" y="505" font-size="16" fill="#64748b">NOM</text><text x="646" y="536" font-size="20" font-weight="700" fill="#073858">Durand</text>
    <text x="1190" y="505" font-size="16" fill="#64748b">PRENOM</text><text x="1200" y="536" font-size="20" font-weight="700" fill="#073858">Alice</text>
    <text x="614" y="596" font-size="16" fill="#64748b">LIGUE RATTACHEE</text><text x="677" y="627" font-size="20" font-weight="700" fill="#073858">1</text>
    <text x="1163" y="596" font-size="16" fill="#64748b">CLUB RATTACHE</text>
    <text x="873" y="687" font-size="20" font-weight="700" fill="#0068a8" text-decoration="underline">Retour à l'accueil</text>
  </g>
</svg>
