<svg xmlns="http://www.w3.org/2000/svg" viewBox="0 0 1900 771" role="img" aria-labelledby="title desc">
  <title id="title">Compte bénévole M2L</title>
  <desc id="desc">Capture stylisee de la page Mon compte pour un benevole du site M2L.</desc>
  <rect width="1900" height="771" fill="#dff4fb"/>
  <rect width="1900" height="202" fill="#5d4898"/>
  <text x="10" y="69" font-family="Segoe UI, Arial, sans-serif" font-size="62" fill="#ffffff">Maison des Ligues</text>
  <g fill="#06136f" opacity="0.9">
    <circle cx="110" cy="90" r="28"/><rect x="90" y="118" width="40" height="70" rx="18"/>
    <circle cx="310" cy="90" r="28"/><rect x="290" y="118" width="40" height="70" rx="18"/>
    <circle cx="510" cy="90" r="28"/><rect x="490" y="118" width="40" height="70" rx="18"/>
    <circle cx="710" cy="90" r="28"/><rect x="690" y="118" width="40" height="70" rx="18"/>
    <circle cx="910" cy="90" r="28"/><rect x="890" y="118" width="40" height="70" rx="18"/>
    <circle cx="1110" cy="90" r="28"/><rect x="1090" y="118" width="40" height="70" rx="18"/>
    <circle cx="1310" cy="90" r="28"/><rect x="1290" y="118" width="40" height="70" rx="18"/>
    <circle cx="1510" cy="90" r="28"/><rect x="1490" y="118" width="40" height="70" rx="18"/>
  </g>
  <rect y="202" width="1900" height="68" fill="#82cee6"/>
  <g font-family="Segoe UI, Arial, sans-serif" font-size="26" font-weight="700" fill="#ffffff">
    <text x="716" y="238">Accueil</text><text x="884" y="238">Services</text><text x="1067" y="238">Locaux</text><text x="1245" y="238">Ligues</text><text x="1399" y="238">Formation</text>
  </g>
  <rect x="1547" y="202" width="175" height="68" fill="#fffdee"/>
  <text x="1561" y="238" font-family="Segoe UI, Arial, sans-serif" font-size="26" font-weight="700">Mon compte</text>
  <text x="1737" y="238" font-family="Segoe UI, Arial, sans-serif" font-size="26" font-weight="700" fill="#ffffff">Déconnexion</text>
  <circle cx="450" cy="324" r="35" fill="#d4effb" stroke="#b4d9ea"/>
  <text x="434" y="333" font-family="Segoe UI, Arial, sans-serif" font-size="22" font-weight="700" fill="#073858">CD</text>
  <text x="503" y="326" font-family="Segoe UI, Arial, sans-serif" font-size="44" font-weight="800" fill="#073858">Mon compte</text>
  <text x="572" y="365" font-family="Segoe UI, Arial, sans-serif" font-size="20" fill="#315b78">Claire Dupont</text>
  <g font-family="Segoe UI, Arial, sans-serif">
    <rect x="416" y="390" width="527" height="78" rx="10" fill="#ffffff" stroke="#d9e3eb"/>
    <rect x="956" y="390" width="527" height="78" rx="10" fill="#ffffff" stroke="#d9e3eb"/>
    <rect x="416" y="482" width="527" height="78" rx="10" fill="#ffffff" stroke="#d9e3eb"/>
    <rect x="956" y="482" width="527" height="78" rx="10" fill="#ffffff" stroke="#d9e3eb"/>
    <rect x="416" y="573" width="527" height="78" rx="10" fill="#ffffff" stroke="#d9e3eb"/>
    <rect x="956" y="573" width="527" height="78" rx="10" fill="#ffffff" stroke="#d9e3eb"/>
    <text x="654" y="419" font-size="16" fill="#64748b">STATUT</text><text x="581" y="450" font-size="20" font-weight="700" fill="#073858">Volontaire / Benevole</text>
    <text x="1179" y="419" font-size="16" fill="#64748b">IDENTIFIANT</text><text x="1182" y="450" font-size="20" font-weight="700" fill="#073858">cdupont</text>
    <text x="667" y="511" font-size="16" fill="#64748b">NOM</text><text x="645" y="542" font-size="20" font-weight="700" fill="#073858">Dupont</text>
    <text x="1193" y="511" font-size="16" fill="#64748b">PRENOM</text><text x="1193" y="542" font-size="20" font-weight="700" fill="#073858">Claire</text>
    <text x="614" y="602" font-size="16" fill="#64748b">LIGUE RATTACHEE</text><text x="675" y="633" font-size="20" font-weight="700" fill="#073858">5</text>
    <text x="1162" y="602" font-size="16" fill="#64748b">CLUB RATTACHE</text><text x="1197" y="633" font-size="20" font-weight="700" fill="#073858">C008</text>
    <text x="872" y="694" font-size="20" font-weight="700" fill="#0068a8" text-decoration="underline">Retour à l'accueil</text>
  </g>
  <rect y="765" width="1900" height="6" fill="#75c8e0"/>
</svg>
