<svg xmlns="http://www.w3.org/2000/svg" viewBox="0 0 1842 991" role="img"><rect width="1842" height="991" fill="#f0f0f1"/><rect width="1842" height="32" fill="#1d2327"/><rect x="0" y="32" width="136" height="959" fill="#1d2327"/><text x="164" y="194" font-family="Segoe UI,Arial" font-size="30" fill="#111">CoolBackup8</text><text x="350" y="193" font-family="Segoe UI,Arial" font-size="16" fill="#7a7a7a">v2.6.0</text><g font-family="Segoe UI,Arial"><rect x="164" y="232" width="392" height="270" rx="8" fill="#fff" stroke="#ddd"/><text x="270" y="366" font-size="36" font-weight="700" fill="#2271b1">0</text><text x="270" y="397" font-size="16" fill="#444">Sauvegardes totales</text><rect x="582" y="232" width="392" height="270" rx="8" fill="#fff" stroke="#ddd"/><text x="688" y="366" font-size="36" font-weight="700" fill="#2271b1">0 o</text><text x="688" y="397" font-size="16" fill="#444">Espace utilisé</text><rect x="1000" y="232" width="392" height="270" rx="8" fill="#fff" stroke="#ddd"/><text x="1107" y="366" font-size="36" font-weight="700" fill="#2271b1">Jamais</text><text x="1107" y="397" font-size="16" fill="#444">Dernière sauvegarde</text><rect x="1420" y="232" width="392" height="270" rx="8" fill="#fff" stroke="#ddd"/><text x="1524" y="283" font-size="18" fill="#0a5fb4">Quotidien 11 février 2026</text><text x="1524" y="345" font-size="18" fill="#0a5fb4">Hebdomadaire 16 février 2026</text><text x="1524" y="407" font-size="18" fill="#0a5fb4">Mensuel 1 mars 2026</text><rect x="164" y="527" width="1647" height="152" rx="8" fill="#fff" stroke="#ddd"/><text x="190" y="572" font-size="24" font-weight="700">Actions rapides</text><rect x="190" y="596" width="389" height="58" rx="4" fill="#2271b1"/><text x="272" y="632" font-size="17" fill="#fff">Créer une sauvegarde maintenant</text><rect x="596" y="596" width="300" height="38" rx="4" fill="#fff" stroke="#2271b1"/><text x="645" y="622" font-size="16" fill="#2271b1">Paramétrages par défaut en 1 clic</text></g></svg>
