<svg xmlns="http://www.w3.org/2000/svg" viewBox="0 0 1643 496" role="img"><rect width="1643" height="496" fill="#fff"/><text x="23" y="40" font-family="Segoe UI,Arial" font-size="23" font-weight="700">Sauvegardes disponibles</text><line x1="23" y1="56" x2="1619" y2="56" stroke="#2271b1" stroke-width="2"/><rect x="24" y="80" width="1595" height="390" fill="#fff" stroke="#bbb"/><g font-family="Segoe UI,Arial" font-size="16"><rect x="24" y="80" width="1595" height="44" fill="#f6f7f7"/><text x="37" y="109" font-weight="700">Type</text><text x="356" y="109" font-weight="700">Fichier</text><text x="676" y="109" font-weight="700">Date</text><text x="995" y="109" font-weight="700">Taille</text><text x="1313" y="109" font-weight="700">Actions</text><text x="51" y="166" fill="#fff" font-weight="700">Annuel</text><rect x="37" y="142" width="94" height="35" rx="17" fill="#e2a600"/><text x="356" y="154">annuel_backup_2026-02-10_22h52m52.zip</text><text x="676" y="166">10 février 2026 22h52</text><text x="995" y="166">139 Ko</text><rect x="1313" y="143" width="125" height="33" rx="3" fill="#fff" stroke="#2271b1"/><text x="1359" y="165" fill="#2271b1">Télécharger</text><rect x="1444" y="143" width="120" height="33" rx="3" fill="#fff" stroke="#d63638"/><text x="1490" y="165" fill="#d63638">Supprimer</text><rect x="24" y="194" width="1595" height="68" fill="#fafafa"/><rect x="37" y="211" width="143" height="35" rx="17" fill="#00a32a"/><text x="51" y="235" fill="#fff" font-weight="700">Hebdomadaire</text><text x="356" y="224">hebdo_backup_2026-02-10_22h52m52.zip</text><text x="676" y="235">10 février 2026 22h52</text><text x="995" y="235">139 Ko</text><rect x="37" y="280" width="102" height="35" rx="17" fill="#d63638"/><text x="51" y="304" fill="#fff" font-weight="700">Mensuel</text><text x="356" y="293">mensuel_backup_2026-02-10_22h52m52.zip</text><rect x="37" y="348" width="116" height="35" rx="17" fill="#2271b1"/><text x="51" y="372" fill="#fff" font-weight="700">Quotidien</text><text x="356" y="361">quotid_backup_2026-02-10_22h52m52.zip</text><rect x="37" y="417" width="97" height="35" rx="17" fill="#646970"/><text x="51" y="441" fill="#fff" font-weight="700">Manuel</text><text x="356" y="430">manual_backup_2026-02-10_18h22m32.zip</text></g></svg>
