<svg xmlns="http://www.w3.org/2000/svg" width="1280" height="620" viewBox="0 0 1280 620">
  <rect width="1280" height="620" fill="#f7f8fa"/>
  <rect width="1280" height="76" fill="#1f2b3a"/>
  <text x="96" y="48" font-family="Arial" font-size="28" font-weight="700" fill="#18b8a8">Portfolio</text>
  <rect x="96" y="126" width="150" height="34" rx="17" fill="#eefdfb" stroke="#18b8a8"/>
  <text x="112" y="148" font-family="Arial" font-size="14" font-weight="700" fill="#122033">MÉTHODE DE VEILLE</text>
  <text x="96" y="220" font-family="Arial" font-size="38" font-weight="800" fill="#122033">Sources utilisées</text>
  <text x="96" y="270" font-family="Arial" font-size="19" fill="#415066">Sources institutionnelles, médias spécialisés, communautés techniques et outils d'alerte.</text>
  <g font-family="Arial" font-size="18" font-weight="700" fill="#081425">
    <rect x="96" y="330" width="220" height="56" rx="6" fill="#fff" stroke="#d9e2ec"/><text x="178" y="365">ANSSI</text>
    <rect x="340" y="330" width="220" height="56" rx="6" fill="#fff" stroke="#d9e2ec"/><text x="415" y="365">CERT-FR</text>
    <rect x="584" y="330" width="220" height="56" rx="6" fill="#fff" stroke="#d9e2ec"/><text x="666" y="365">ZATAZ</text>
    <rect x="828" y="330" width="220" height="56" rx="6" fill="#fff" stroke="#d9e2ec"/><text x="870" y="365">The Hacker News</text>
    <rect x="96" y="410" width="220" height="56" rx="6" fill="#fff" stroke="#d9e2ec"/><text x="156" y="445">Cybernews</text>
    <rect x="340" y="410" width="220" height="56" rx="6" fill="#fff" stroke="#d9e2ec"/><text x="420" y="445">LeMagIT</text>
    <rect x="584" y="410" width="220" height="56" rx="6" fill="#fff" stroke="#d9e2ec"/><text x="642" y="445">Google Alerts</text>
    <rect x="828" y="410" width="220" height="56" rx="6" fill="#fff" stroke="#d9e2ec"/><text x="905" y="445">LinkedIn</text>
  </g>
</svg>
