<svg xmlns="http://www.w3.org/2000/svg" width="1280" height="620" viewBox="0 0 1280 620">
  <rect width="1280" height="620" fill="#f7f8fa"/>
  <rect width="1280" height="76" fill="#1f2b3a"/>
  <text x="96" y="48" font-family="Arial" font-size="28" font-weight="700" fill="#18b8a8">Portfolio</text>
  <rect x="96" y="132" width="150" height="34" rx="17" fill="#eefdfb" stroke="#18b8a8"/>
  <text x="112" y="154" font-family="Arial" font-size="14" font-weight="700" fill="#122033">FLUX AUTOMATISÉS</text>
  <text x="96" y="230" font-family="Arial" font-size="38" font-weight="800" fill="#122033">Actualités récentes</text>
  <text x="96" y="284" font-family="Arial" font-size="19" fill="#415066">Les cartes récupèrent automatiquement des articles cybersécurité depuis plusieurs flux publics.</text>
  <rect x="96" y="330" width="64" height="42" rx="21" fill="#18b8a8"/><text x="119" y="357" font-family="Arial" font-size="15" font-weight="700" fill="#fff">Tout</text>
  <rect x="176" y="330" width="112" height="42" rx="21" fill="#fff" stroke="#c8d5e5"/><text x="199" y="357" font-family="Arial" font-size="15" font-weight="700">Ransomware</text>
  <rect x="304" y="330" width="90" height="42" rx="21" fill="#fff" stroke="#c8d5e5"/><text x="326" y="357" font-family="Arial" font-size="15" font-weight="700">Phishing</text>
  <g font-family="Arial">
    <rect x="96" y="410" width="315" height="170" rx="6" fill="#fff" stroke="#d9e2ec"/><rect x="96" y="410" width="5" height="170" fill="#18b8a8"/>
    <text x="116" y="445" font-size="14" font-weight="700" fill="#536987">CERT-FR Avis</text><text x="316" y="445" font-size="14" font-weight="700" fill="#536987">12 mai 2026</text>
    <rect x="116" y="458" width="92" height="28" rx="4" fill="#bff5e8"/><text x="126" y="477" font-size="13" font-weight="700" fill="#005f5a">vulnerability</text>
    <text x="116" y="522" font-size="20" font-weight="800" fill="#081425">Multiples vulnérabilités</text>
    <text x="116" y="550" font-size="20" font-weight="800" fill="#081425">dans Microsoft Edge</text>
    <rect x="460" y="410" width="315" height="170" rx="6" fill="#fff" stroke="#d9e2ec"/><rect x="460" y="410" width="5" height="170" fill="#18b8a8"/>
    <text x="480" y="445" font-size="14" font-weight="700" fill="#536987">CERT-FR Avis</text><text x="680" y="445" font-size="14" font-weight="700" fill="#536987">12 mai 2026</text>
    <text x="480" y="522" font-size="20" font-weight="800" fill="#081425">Multiples vulnérabilités</text>
    <text x="480" y="550" font-size="20" font-weight="800" fill="#081425">dans Microsoft Azure</text>
    <rect x="824" y="410" width="315" height="170" rx="6" fill="#fff" stroke="#d9e2ec"/><rect x="824" y="410" width="5" height="170" fill="#18b8a8"/>
    <text x="844" y="445" font-size="14" font-weight="700" fill="#536987">CERT-FR Avis</text><text x="1044" y="445" font-size="14" font-weight="700" fill="#536987">12 mai 2026</text>
    <text x="844" y="522" font-size="20" font-weight="800" fill="#081425">Multiples vulnérabilités</text>
    <text x="844" y="550" font-size="20" font-weight="800" fill="#081425">dans les produits Centreon</text>
  </g>
</svg>
